<?xml version="1.0" standalone="no"?>
<!DOCTYPE svg PUBLIC "-//W3C//DTD SVG 20010904//EN"
 "http://www.w3.org/TR/2001/REC-SVG-20010904/DTD/svg10.dtd">
<svg version="1.0" xmlns="http://www.w3.org/2000/svg"
 width="1055.000000pt" height="1055.000000pt" viewBox="0 0 1055.000000 1055.000000"
 preserveAspectRatio="xMidYMid meet">
<metadata>
Created by potrace 1.14, written by Peter Selinger 2001-2017
</metadata>
<g transform="translate(0.000000,1055.000000) scale(0.100000,-0.100000)"
fill="#000000" stroke="none">
<path d="M5916 10515 c-19 -19 -42 -35 -52 -35 -13 0 -10 -5 11 -22 26 -20 26
-22 9 -29 -28 -11 -112 -10 -119 1 -4 6 5 10 19 10 30 0 35 16 7 25 -59 18
-395 -48 -388 -77 3 -16 -81 -22 -248 -19 -38 1 -86 -1 -105 -4 -19 -3 -48 -7
-63 -9 -30 -4 -44 -13 -35 -22 11 -10 93 -12 112 -2 10 5 41 9 70 9 28 -1 130
-3 226 -5 175 -3 253 -10 330 -29 28 -7 72 -14 145 -24 28 -3 60 -13 73 -21
12 -8 22 -10 22 -6 0 5 4 4 8 -2 10 -17 58 -22 55 -6 -4 15 0 15 65 -2 29 -8
53 -14 55 -14 1 0 19 -7 41 -16 21 -9 42 -16 47 -16 5 0 9 -4 9 -10 0 -20
-118 -2 -144 22 -14 12 -52 10 -40 -2 13 -13 169 -88 199 -96 24 -6 110 -92
101 -101 -2 -2 -26 7 -52 21 -86 44 -268 128 -307 142 -21 8 -60 16 -85 19
-26 4 -62 13 -81 22 -18 8 -72 17 -120 19 -104 5 -184 12 -231 19 -42 7 -106
15 -140 19 -14 2 -41 -5 -60 -15 -54 -26 -110 -29 -110 -5 0 10 -14 14 -51 14
-28 1 -61 8 -74 16 -13 8 -39 16 -58 18 -20 1 -35 4 -35 7 4 42 -43 42 -80 1
-18 -19 -41 -31 -67 -36 -22 -3 -44 -9 -48 -14 -16 -14 53 -17 90 -2 67 25 80
25 110 2 16 -12 36 -22 44 -24 8 -1 32 -10 54 -20 22 -10 45 -19 50 -20 6 -1
15 -5 21 -8 6 -4 41 -23 79 -43 38 -20 87 -51 111 -68 23 -18 54 -41 68 -51
15 -11 33 -34 42 -51 8 -18 38 -52 66 -76 77 -65 201 -199 193 -208 -2 -2 -21
13 -42 32 -52 49 -80 74 -147 132 -32 28 -82 72 -110 98 -87 82 -196 147 -306
182 -30 10 -66 29 -80 42 -29 27 -78 43 -100 33 -8 -4 -35 -6 -60 -3 -61 5
-79 5 -120 -2 -35 -7 -130 -50 -140 -64 -3 -4 -52 -38 -110 -76 -58 -39 -107
-72 -110 -76 -3 -3 -21 -15 -41 -27 -20 -12 -48 -37 -62 -55 -13 -17 -49 -57
-78 -88 -30 -31 -73 -78 -96 -105 -73 -86 -97 -111 -130 -133 -37 -25 -42 -45
-15 -60 15 -9 14 -13 -15 -41 -36 -34 -41 -51 -20 -69 11 -8 20 -6 38 10 13
12 45 39 72 62 26 22 47 46 47 53 0 18 58 74 77 74 10 0 3 -13 -21 -41 -19
-23 -33 -46 -30 -53 2 -6 -26 -39 -63 -71 -131 -115 -185 -171 -224 -228 -35
-49 -68 -112 -75 -139 -1 -5 -2 -9 -3 -10 -2 -2 -4 -12 -7 -23 -3 -16 -21 -89
-48 -195 -2 -8 -15 -40 -29 -71 -14 -32 -25 -73 -25 -92 0 -19 -4 -43 -10 -53
-10 -20 -23 -88 -27 -141 -2 -17 -14 -46 -28 -65 -27 -35 -31 -76 -26 -305 0
-34 -5 -79 -12 -100 -17 -52 -19 -72 -23 -191 -4 -119 -1 -138 25 -145 16 -4
18 -13 15 -57 -2 -33 0 -53 8 -55 6 -1 30 -8 52 -15 78 -23 122 10 148 111 8
31 37 114 63 185 51 136 55 172 42 349 -3 52 9 66 40 46 11 -7 12 -15 3 -38
-6 -15 -10 -53 -8 -83 2 -30 5 -70 5 -89 1 -25 5 -32 16 -27 20 7 19 -3 -4
-61 -10 -26 -19 -51 -20 -55 0 -5 -1 -9 -1 -10 -1 -2 -3 -23 -5 -48 -4 -58
-60 -238 -83 -269 -20 -27 -99 -56 -152 -56 -44 0 -53 -12 -32 -43 23 -35 25
-61 8 -96 -29 -63 -66 -181 -66 -213 0 -18 -4 -33 -10 -33 -11 0 -13 10 -10
58 1 21 -3 32 -12 32 -8 0 -23 7 -34 15 -15 11 -16 16 -6 23 7 5 23 7 35 5 18
-2 27 7 51 57 34 71 38 124 10 144 -10 8 -19 20 -19 28 0 16 -63 24 -78 9 -14
-14 10 -40 42 -46 30 -6 32 -7 34 -41 2 -25 -2 -29 -23 -29 -39 -1 -72 -58
-69 -120 2 -27 7 -55 11 -60 4 -6 9 -58 12 -115 9 -173 18 -241 47 -353 17
-68 18 -84 7 -115 -7 -21 -13 -44 -15 -52 -4 -36 -14 -205 -18 -321 -2 -69 -5
-129 -6 -135 -2 -5 1 -45 5 -90 4 -45 9 -117 11 -160 2 -43 6 -90 8 -104 2
-14 8 -50 11 -80 4 -30 14 -65 22 -77 8 -13 22 -35 31 -49 17 -27 17 -27 -4
-15 -12 6 -25 16 -28 21 -11 18 -31 10 -33 -12 -1 -13 -4 -32 -6 -43 -3 -11
-5 -28 -5 -37 -1 -10 -5 -18 -10 -18 -15 0 -22 52 -12 87 8 26 6 37 -11 58
-11 14 -21 42 -23 63 -2 20 -7 73 -12 117 -8 87 -9 621 -1 670 3 17 1 35 -4
42 -6 7 -3 26 7 50 9 21 18 66 21 100 l5 62 -33 -11 c-18 -6 -52 -12 -75 -14
-53 -4 -104 -27 -142 -67 -31 -31 -37 -54 -45 -169 -2 -32 -10 -68 -18 -80
-22 -34 -27 -62 -29 -166 -2 -62 1 -96 9 -101 26 -16 42 -82 42 -174 0 -50 1
-117 1 -147 1 -30 0 -57 -1 -60 -20 -59 -30 -213 -17 -280 4 -25 9 -54 11 -65
7 -53 35 -103 86 -156 42 -43 120 -99 137 -99 5 0 35 26 68 56 84 78 92 83
170 90 116 11 136 10 241 -12 56 -11 130 -22 164 -23 34 -1 70 -4 81 -7 43 -9
210 -54 229 -61 8 -3 21 -7 28 -9 7 -1 35 -8 62 -15 39 -10 52 -10 64 0 9 7
21 9 28 4 48 -30 155 -43 164 -19 8 20 55 35 134 41 36 3 81 7 100 10 19 3 50
7 69 10 18 2 35 6 38 8 2 3 21 1 41 -4 20 -5 72 -11 114 -14 43 -3 103 -8 135
-11 32 -4 79 -7 105 -8 27 0 48 -3 48 -6 0 -3 93 -5 208 -4 l207 0 120 -42
c66 -23 134 -47 150 -53 17 -7 31 -12 33 -11 3 1 62 -32 80 -45 39 -30 74 -75
88 -115 28 -77 65 -150 76 -150 6 0 9 -2 6 -5 -8 -8 61 -75 77 -75 7 0 15 7
19 15 6 18 -3 93 -14 115 -4 8 -6 48 -3 88 5 70 4 74 -23 97 -26 22 -46 74
-24 60 21 -13 9 22 -25 75 -23 35 -31 58 -25 64 14 14 42 -14 75 -75 19 -36
24 -54 17 -61 -8 -8 -7 -21 3 -44 7 -18 16 -57 20 -86 3 -29 10 -82 15 -118 6
-36 10 -78 10 -95 0 -42 -36 -80 -80 -84 -19 -1 -37 -3 -40 -4 -22 -5 -56 39
-106 140 -33 64 -75 134 -94 154 -33 36 -106 76 -117 65 -3 -2 -25 4 -49 14
-24 11 -71 24 -105 30 -34 6 -89 24 -123 39 -74 34 -116 47 -181 57 -27 4 -57
9 -65 11 -8 2 -42 5 -75 8 -108 7 -219 16 -260 21 -50 7 -132 6 -165 -1 -84
-17 -183 -33 -252 -39 -26 -3 -57 -10 -68 -16 -20 -11 -27 -30 -11 -30 14 0
186 -81 371 -174 171 -86 215 -104 264 -108 22 -2 25 -5 13 -12 -12 -8 3 -22
76 -68 51 -32 99 -61 107 -65 8 -3 17 -9 20 -13 3 -3 33 -23 67 -45 35 -22 63
-43 63 -47 0 -5 4 -8 9 -8 14 0 243 -157 261 -180 9 -10 107 -80 113 -80 4 0
23 -12 44 -26 65 -44 197 -113 227 -118 22 -4 44 4 87 30 31 20 69 37 85 39
15 1 32 9 38 17 15 19 266 21 362 3 67 -13 218 -60 239 -75 6 -3 31 -14 56
-23 58 -22 106 -68 135 -132 19 -41 23 -63 20 -130 -4 -134 -55 -210 -197
-297 -33 -20 -56 -38 -52 -41 4 -2 46 -14 93 -26 160 -43 237 -78 226 -106 -2
-7 1 -18 7 -24 16 -16 -31 -14 -113 4 -87 19 -87 19 -93 -13 -4 -22 -18 -34
-59 -54 -77 -39 -128 -58 -150 -58 -17 0 -18 3 -8 15 7 8 19 15 26 15 8 0 14
4 14 8 0 7 55 34 75 36 19 2 16 42 -4 61 -21 18 -22 17 -72 -34 -41 -40 -59
-51 -84 -51 -26 0 -31 4 -31 23 1 12 -3 21 -9 20 -29 -5 -245 -114 -252 -128
-5 -9 -16 -17 -24 -19 -26 -4 -94 -29 -106 -38 -7 -6 -20 -4 -35 5 -40 24
-100 21 -174 -11 -38 -16 -74 -27 -80 -25 -14 5 -64 -45 -65 -66 0 -9 -2 -26
-5 -38 -4 -21 14 -47 38 -55 8 -3 5 -15 -11 -37 -20 -27 -21 -35 -10 -42 21
-13 62 -11 86 6 19 13 21 13 26 -5 4 -14 11 -18 28 -14 13 4 33 5 44 5 11 -1
32 -2 48 -3 34 -1 35 -11 2 -28 -34 -18 -15 -30 48 -30 26 0 47 -4 47 -10 0
-5 -8 -10 -18 -10 -9 0 -34 -11 -55 -25 -61 -42 -45 -104 28 -110 22 -2 76 -6
120 -10 100 -8 158 -15 162 -19 2 -2 -85 -4 -194 -4 -109 0 -234 -1 -278 -2
-44 -1 -101 -1 -126 0 -53 3 -69 -4 -69 -29 0 -31 99 -214 145 -268 20 -24 31
-38 55 -73 13 -19 37 -48 52 -65 15 -16 28 -33 28 -36 0 -3 26 -39 58 -81 31
-42 82 -111 112 -154 30 -42 79 -109 107 -148 29 -39 61 -82 70 -95 51 -70
158 -181 174 -181 4 0 14 -6 21 -13 24 -24 123 -75 189 -98 35 -12 68 -25 74
-30 27 -25 51 -7 131 101 28 38 61 67 109 95 94 54 134 96 150 155 0 3 4 15 9
27 4 14 1 33 -8 50 -20 39 -12 48 159 174 77 57 146 109 153 114 8 6 33 28 58
51 44 41 54 70 32 92 -7 7 -9 12 -5 12 4 0 -3 12 -16 26 -24 26 -33 28 -142
42 -35 4 -74 17 -90 28 -27 19 -42 21 -150 19 -76 -2 -136 2 -165 10 -51 15
-48 16 75 19 50 2 99 7 109 13 16 9 16 10 1 23 -13 10 -49 14 -131 14 l-114 0
0 27 c0 26 2 27 48 24 70 -5 152 -15 192 -23 30 -7 35 -12 35 -37 1 -40 11
-55 40 -55 18 0 24 6 27 27 4 36 34 38 65 5 22 -23 33 -27 84 -27 62 0 70 5
41 27 -24 18 -40 58 -35 88 3 22 -1 26 -24 28 -14 1 -37 -5 -51 -14 -13 -9
-22 -11 -18 -6 3 6 1 14 -5 18 -7 4 -23 -5 -37 -22 -16 -18 -36 -29 -53 -30
-26 -2 -27 0 -17 20 6 11 29 38 51 58 42 40 52 42 161 39 27 -1 52 -3 55 -6 4
-2 29 -7 55 -10 l47 -7 -18 29 c-53 84 -104 152 -127 166 -34 23 -109 131
-114 164 -2 15 -12 38 -22 53 -35 49 -92 171 -86 186 3 8 12 14 21 14 13 0 18
16 17 50 0 3 16 12 35 22 34 16 35 16 63 -14 l29 -29 21 21 c19 19 21 29 16
69 -6 44 -4 49 19 61 35 19 166 17 285 -5 52 -9 107 -18 121 -20 15 -1 31 -5
36 -8 6 -4 18 0 28 7 23 17 13 62 -15 71 -11 4 -27 16 -35 28 -29 45 -66 177
-68 245 -2 56 -10 82 -45 156 -23 48 -44 109 -48 135 -3 25 -6 48 -7 51 -1 3
2 15 7 27 6 20 27 33 65 39 8 2 17 8 21 14 5 9 7 293 1 336 0 5 -17 10 -36 10
-40 0 -71 25 -80 65 -6 25 -9 27 -31 19 -13 -5 -24 -6 -24 -2 0 6 33 35 63 53
5 4 11 61 13 130 1 68 6 145 12 170 5 26 8 60 6 76 -2 16 -5 67 -8 113 -5 98
5 129 57 178 51 48 61 101 59 317 -2 278 -7 352 -22 370 -9 11 -13 44 -12 111
1 53 5 100 8 105 10 16 -7 49 -25 49 -23 0 -51 60 -51 108 0 20 -9 80 -21 132
-31 149 -34 201 -13 280 17 68 18 70 71 96 65 33 175 136 197 185 16 35 17
134 2 255 -2 16 3 48 11 70 8 21 16 57 18 79 9 78 15 102 36 124 11 12 34 52
51 89 16 37 37 75 46 85 8 9 12 17 9 17 -4 0 9 26 27 58 44 75 53 106 60 195
2 26 1 60 -3 74 -8 29 25 165 40 171 14 6 11 19 -21 93 -25 55 -30 82 -29 132
0 34 1 87 0 117 0 30 0 78 0 106 0 28 -5 63 -11 79 -6 16 -13 49 -16 74 -3 25
-16 61 -29 80 -25 35 -20 61 10 61 13 0 28 24 29 49 1 8 -8 19 -19 25 -11 6
-30 19 -44 28 -20 15 -21 19 -7 24 30 11 16 21 -44 31 -41 7 -63 6 -70 -1 -6
-6 -50 -12 -98 -13 -48 -1 -96 -2 -107 -4 -23 -2 -138 11 -144 17 -2 2 2 10 8
18 9 10 9 16 1 21 -7 4 -10 16 -7 26 3 11 1 19 -4 19 -5 0 -9 7 -9 16 0 57
110 63 188 11 26 -17 59 -44 74 -61 22 -26 27 -28 33 -14 10 25 -10 53 -60 84
-48 31 -67 66 -55 100 11 29 1 41 -40 46 -19 3 -54 14 -78 26 -48 23 -162 26
-184 4 -19 -19 -30 -14 -18 8 8 15 8 27 -2 48 -18 36 -42 39 -57 6 -8 -19 -15
-24 -23 -16 -13 13 -48 -15 -48 -39 0 -19 20 -29 65 -35 36 -5 64 -29 49 -44
-7 -7 -18 -5 -35 8 -36 29 -35 29 -58 8 -21 -19 -22 -19 -36 0 -15 20 -16 23
-20 64 -3 31 14 70 31 70 7 0 25 5 41 11 15 7 40 12 56 12 21 0 27 4 27 21 0
42 -12 66 -32 66 -26 0 -18 24 10 28 17 3 22 10 22 32 0 38 -20 80 -37 80 -21
0 -10 24 13 28 10 2 24 9 29 14 7 8 6 9 -2 4 -7 -4 -14 3 -19 16 -3 13 -19 42
-35 66 -37 55 -37 71 0 30 l29 -33 22 20 c35 32 61 72 64 102 2 15 7 39 10 53
10 41 15 78 20 148 4 52 3 60 -4 37 -5 -16 -12 -41 -14 -55 -2 -14 -5 -27 -7
-30 -1 -3 -3 -12 -3 -20 -1 -9 -10 -14 -24 -13 -12 2 -22 -2 -22 -8 0 -7 -11
-9 -30 -5 -16 3 -30 2 -30 -2 0 -11 -42 -7 -67 7 -34 17 -28 32 9 24 l32 -6
-22 28 c-43 55 -90 74 -129 53 -13 -6 -23 -18 -23 -25 0 -11 -6 -10 -27 5 -19
12 -48 20 -86 21 -57 2 -58 2 -51 -21 4 -13 8 -34 8 -48 1 -23 -2 -25 -44 -24
-25 1 -51 2 -57 3 -7 1 -13 10 -13 22 0 24 -65 93 -79 85 -5 -4 -8 -16 -6 -28
3 -11 1 -28 -4 -36 -7 -12 -11 -9 -22 14 -8 16 -23 30 -34 30 -37 3 -40 5 -24
14 9 5 26 8 37 5 12 -2 24 0 27 6 6 8 -5 14 -64 35 -11 3 -12 7 -3 16 9 9 15
9 24 0 21 -21 27 -13 16 19 -9 25 -15 30 -35 26 -14 -2 -41 0 -61 5 -20 5 -48
11 -60 14 -13 2 -65 24 -115 48 -144 67 -163 74 -152 56 12 -19 -23 -21 -57
-4 -36 19 -47 21 -160 28 -55 4 -101 15 -166 41 -89 35 -120 40 -156 26 -16
-6 -17 -9 -5 -16 8 -5 19 -10 24 -11 6 -1 26 -5 45 -8 19 -4 44 -9 55 -13 39
-11 201 -91 212 -105 17 -21 53 -88 53 -98 0 -18 -28 -10 -47 14 -22 28 -86
71 -173 117 -36 19 -67 36 -70 39 -8 10 -50 9 -50 0 0 -5 16 -18 35 -30 34
-21 39 -40 9 -40 -12 0 -43 20 -104 69 -3 2 1 6 8 8 19 7 14 31 -7 38 -11 3
-23 15 -26 25 -6 18 -21 26 -64 35 -23 4 -27 -5 -9 -23 21 -21 -19 -52 -69
-52 -50 0 -60 19 -10 21 17 1 36 1 40 0 5 -1 6 3 2 9 -9 14 -48 12 -69 -3 -10
-8 -29 -12 -43 -9 l-23 4 25 24 c19 18 33 22 60 19 18 -3 37 -1 40 5 3 5 -3 9
-12 8 -83 -2 -184 19 -198 41 -11 18 -24 13 -59 -24z"/>
<path d="M7308 10268 c23 -11 42 -26 42 -32 0 -7 17 -22 38 -34 30 -16 41 -19
50 -10 16 16 15 36 0 52 -22 21 -97 46 -136 46 l-37 -1 43 -21z"/>
<path d="M7474 10201 c4 -6 -1 -25 -11 -42 l-18 -31 28 -24 c34 -29 50 -24 37
11 -6 17 -6 33 2 50 13 28 12 30 -21 40 -16 5 -21 4 -17 -4z"/>
<path d="M8172 9164 c-30 -21 -28 -31 7 -26 33 5 52 -16 27 -30 -31 -17 -17
-30 27 -24 23 3 48 5 55 5 24 1 13 41 -14 52 -15 5 -29 7 -32 4 -3 -3 -11 4
-19 15 -17 24 -22 25 -51 4z"/>
<path d="M8258 6683 c-10 -2 -18 -9 -18 -14 0 -6 -13 -22 -30 -37 -33 -31 -33
-31 -26 -211 4 -119 13 -150 38 -135 7 4 11 -32 11 -98 0 -9 6 -19 14 -22 9
-4 13 -1 10 6 -4 12 11 53 53 143 28 60 47 107 55 133 10 35 8 122 -4 136 -6
7 -8 15 -5 18 5 5 -71 90 -78 87 -2 -1 -11 -3 -20 -6z"/>
<path d="M3650 5203 c-39 -14 -143 -80 -182 -115 -7 -7 -52 -47 -98 -88 -138
-122 -204 -190 -272 -282 -74 -101 -79 -127 -43 -198 27 -54 49 -64 59 -27 9
37 60 78 103 83 21 3 54 7 73 11 19 3 38 6 41 5 3 0 46 10 95 23 78 21 90 22
97 9 13 -23 54 -9 108 36 55 46 140 82 183 78 29 -3 29 -3 -22 -31 -28 -15
-55 -28 -59 -28 -5 0 -15 -6 -23 -13 -47 -40 -139 -81 -196 -87 -34 -3 -75
-13 -92 -21 -25 -13 -32 -13 -36 -3 -5 15 -36 14 -37 -1 -3 -39 -39 -56 -65
-30 -7 8 -22 13 -31 11 -10 -2 -23 -4 -28 -4 -6 -1 -11 -9 -11 -20 0 -15 6
-18 28 -14 32 5 38 -12 9 -22 -37 -11 -61 -14 -61 -6 0 4 -12 8 -27 7 -21 -1
-27 -7 -30 -28 -3 -25 16 -42 43 -37 38 7 47 -22 12 -38 -13 -6 -38 -8 -56 -5
-26 3 -37 -1 -56 -21 -12 -13 -42 -37 -64 -52 -23 -15 -42 -31 -42 -35 0 -17
73 15 108 47 20 18 41 33 48 33 15 0 26 -28 13 -35 -5 -4 -7 -10 -4 -15 2 -4
-4 -19 -15 -33 -26 -32 -26 -32 10 -47 35 -14 39 -35 10 -43 -11 -3 -21 -5
-23 -4 -1 0 -13 -6 -27 -13 -14 -8 -28 -14 -32 -15 -3 0 -10 -3 -13 -7 -13
-12 -64 22 -65 42 0 3 14 11 30 18 17 8 30 20 30 28 0 21 -119 17 -149 -5 -21
-16 -21 -19 -7 -46 8 -16 13 -31 11 -35 -2 -3 -6 -24 -9 -46 -3 -21 -8 -50
-11 -64 -3 -14 -8 -38 -12 -55 -8 -38 -5 -107 4 -116 5 -4 31 3 58 16 139 66
168 76 158 50 -6 -17 -83 -61 -83 -48 0 5 -4 3 -8 -2 -14 -19 -146 -72 -200
-80 -31 -5 -42 -11 -40 -23 4 -19 -68 -63 -97 -59 -41 6 -162 73 -152 84 3 2
35 -3 72 -12 39 -10 80 -14 101 -11 35 7 47 25 17 27 -10 0 -27 2 -38 4 -11 2
-42 6 -70 9 -27 3 -68 10 -90 16 -22 6 -57 13 -77 16 -36 6 -38 5 -36 -21 2
-26 15 -39 102 -109 63 -51 36 -54 -33 -3 -28 20 -63 23 -56 4 3 -6 27 -27 54
-46 27 -18 59 -43 71 -56 25 -27 22 -37 -36 -106 -37 -45 -52 -75 -60 -119 -3
-14 -7 -33 -10 -42 -22 -74 -22 -144 1 -200 9 -24 16 -23 73 11 57 33 92 46
92 33 0 -5 -16 -17 -35 -28 -19 -10 -35 -21 -35 -24 0 -12 -62 -41 -88 -42
-23 -1 -33 -9 -50 -42 -35 -66 -131 -160 -249 -246 -34 -25 -69 -60 -77 -78
-18 -37 -72 -110 -96 -129 -11 -8 -17 -8 -22 0 -8 14 -58 20 -58 7 0 -4 7 -10
15 -14 8 -3 15 -15 15 -26 0 -17 -4 -19 -17 -12 -10 5 -27 6 -37 3 -16 -6 -15
-9 13 -21 35 -14 60 -58 40 -70 -8 -5 -8 -13 0 -27 9 -18 7 -65 -4 -82 -5 -8
-17 -129 -20 -199 -2 -71 -14 -122 -26 -122 -5 0 -7 -12 -4 -27 3 -16 0 -40
-6 -56 -10 -23 -9 -31 5 -46 12 -13 15 -28 11 -51 -4 -22 0 -41 14 -63 12 -21
17 -42 14 -59 -3 -15 1 -45 10 -65 12 -31 12 -44 2 -73 -10 -29 -10 -39 3 -62
13 -22 13 -32 4 -52 -10 -23 -9 -28 11 -40 12 -8 38 -18 57 -21 46 -8 80 -31
80 -54 0 -32 25 -42 97 -40 37 0 78 3 91 6 23 5 22 6 -9 25 -18 11 -40 29 -49
40 -16 20 -18 20 -41 5 -13 -10 -35 -17 -49 -17 -23 1 -22 3 13 21 21 11 42
32 48 47 6 15 27 47 48 72 77 93 83 106 90 193 8 109 4 137 -18 137 -10 0 -24
-7 -31 -15 -17 -20 -41 -20 -33 1 3 8 23 22 44 31 28 11 41 23 45 42 12 54 16
68 40 132 26 71 27 71 172 171 84 57 103 62 147 38 27 -15 101 -130 117 -181
7 -25 19 -44 30 -47 10 -2 21 -16 25 -31 11 -45 78 -79 146 -75 20 1 37 -2 37
-7 0 -5 -4 -9 -10 -9 -5 0 -10 -7 -10 -15 0 -11 12 -15 48 -16 52 0 139 -16
107 -19 -11 -1 -38 -3 -60 -6 -147 -16 -255 -9 -255 16 0 5 -20 43 -45 84 -25
42 -45 78 -45 80 0 8 -100 167 -114 182 -20 20 -26 18 -138 -54 -30 -20 -74
-83 -70 -102 0 -3 -7 -13 -15 -22 -9 -10 -13 -18 -9 -18 3 0 0 -13 -8 -29 -11
-21 -12 -31 -3 -40 8 -8 7 -11 -6 -11 -21 0 -22 -35 -2 -74 19 -35 19 -36 -1
-36 -9 0 -14 -6 -11 -12 4 -13 7 -14 44 -17 15 -1 15 -3 0 -18 -8 -10 -19 -31
-22 -48 -4 -16 -14 -40 -22 -53 -12 -20 -12 -23 2 -29 20 -7 95 14 95 27 0 6
-4 10 -10 10 -5 0 -10 5 -10 10 0 22 36 -9 37 -31 3 -32 -14 -40 -72 -33 -43
5 -54 2 -77 -18 -29 -24 -37 -57 -15 -59 6 0 21 -3 32 -5 11 -2 35 -5 53 -5
57 -2 34 -19 -25 -18 -108 0 -115 0 -129 -12 -8 -6 -14 -21 -14 -34 0 -20 6
-22 83 -28 45 -4 93 -9 107 -12 29 -6 99 -17 118 -18 6 0 12 -4 12 -9 0 -9
-95 -6 -252 8 -65 5 -78 4 -78 -8 0 -8 9 -23 20 -33 16 -14 37 -18 120 -17 74
0 115 -5 154 -19 61 -21 96 -28 175 -34 31 -3 81 -7 111 -10 30 -3 87 -8 125
-10 39 -3 77 -8 85 -10 8 -2 39 -7 68 -10 29 -3 64 -10 77 -15 25 -9 55 -57
55 -85 0 -9 9 -19 20 -22 11 -3 20 -13 20 -23 0 -9 35 -52 78 -96 127 -129
149 -146 207 -160 31 -8 65 -16 109 -24 46 -9 93 -37 81 -48 -6 -6 46 -80 85
-119 23 -23 55 -39 114 -58 52 -15 96 -36 117 -55 19 -16 39 -30 44 -30 22 1
46 51 42 88 -8 83 26 106 156 104 79 -1 162 -7 162 -12 0 -1 20 -3 45 -6 25
-2 52 -6 60 -8 8 -2 30 -7 48 -11 37 -9 55 -26 20 -19 -13 2 -41 6 -63 9 -22
2 -49 6 -60 9 -29 5 -129 16 -207 21 -64 5 -69 4 -102 -27 -28 -26 -33 -35
-26 -54 6 -14 5 -26 -1 -29 -23 -15 7 -25 69 -24 101 3 156 0 149 -7 -4 -4
-40 -8 -81 -10 -81 -2 -140 -24 -157 -56 -16 -31 3 -45 38 -28 26 13 36 14 64
11 22 -2 -3 -19 -46 -30 -53 -13 -58 -26 -12 -29 17 -2 50 -8 72 -14 51 -15
59 -16 125 -23 99 -10 179 -46 233 -103 30 -33 46 -42 85 -47 26 -3 69 -12 96
-20 26 -8 53 -12 59 -8 6 4 25 7 43 9 17 1 40 7 50 13 16 10 13 11 -17 8 -20
-3 -42 -8 -48 -11 -6 -4 -11 -1 -11 8 0 8 5 18 11 22 22 13 116 8 153 -10 20
-9 44 -16 54 -15 18 3 76 -9 102 -21 96 -44 158 -82 207 -129 40 -37 73 -60
102 -67 39 -11 41 -10 36 7 -13 41 -11 76 6 116 19 45 16 57 -12 42 -31 -16
-22 4 17 40 27 24 39 45 46 79 5 30 18 56 35 71 26 24 26 24 21 3 -15 -55 47
6 65 65 9 30 30 55 84 102 40 34 76 73 79 86 8 33 34 55 34 29 0 -16 2 -17 10
-4 5 8 7 22 5 30 -4 14 64 94 111 130 102 79 169 142 298 280 56 60 101 82
171 82 27 1 56 6 64 11 7 6 25 13 39 15 15 2 56 16 92 31 86 37 112 46 193 67
37 9 67 21 67 26 0 28 -78 68 -122 61 -31 -4 -142 42 -134 56 8 12 32 8 71
-13 40 -21 72 -21 72 2 0 9 -8 23 -17 29 -10 7 -21 25 -25 40 -3 15 -47 81
-96 148 -49 66 -99 135 -111 153 -13 18 -40 51 -60 75 -21 23 -40 50 -44 60
-3 9 -9 17 -14 17 -5 0 -12 9 -15 20 -3 11 -12 26 -19 32 -7 7 -32 42 -56 78
-24 36 -47 67 -52 68 -4 2 -8 8 -8 13 0 9 -37 67 -50 79 -3 3 -17 21 -30 40
-27 38 -48 65 -67 85 -7 8 -13 18 -13 23 0 5 -6 15 -13 21 -8 6 -19 28 -25 49
-11 36 -14 38 -43 34 l-31 -5 15 30 c10 18 12 34 7 44 -15 26 -22 106 -11 114
13 8 127 16 245 18 53 1 91 6 93 13 3 10 -44 11 -210 3 -34 -1 -62 2 -69 9
-14 14 -21 13 80 16 117 4 124 21 9 24 -50 1 -96 7 -101 12 -5 5 -11 24 -12
41 -2 18 -9 36 -16 40 -10 7 -10 9 0 10 6 1 16 2 21 3 5 0 18 11 29 24 16 18
18 30 12 51 -8 28 -6 68 5 130 l6 34 -26 -17 c-20 -13 -25 -14 -25 -3 0 32 52
78 103 92 4 2 8 4 10 5 1 2 16 4 32 5 39 2 75 14 75 25 0 12 57 29 105 32 28
2 39 -1 38 -9 -4 -16 -4 -16 47 2 23 8 46 12 51 9 11 -6 88 47 89 61 0 6 10
11 23 13 12 1 49 11 82 23 33 11 75 22 94 24 19 3 55 14 80 26 25 12 57 25 70
28 26 7 27 6 -25 49 -11 9 -26 27 -32 39 -11 19 -9 22 10 25 19 3 20 5 7 18
-8 8 -21 24 -29 34 -14 18 -14 19 10 7 14 -7 40 -29 59 -49 32 -34 34 -35 47
-16 31 43 79 94 90 94 6 0 23 9 38 21 14 11 26 18 26 15 0 -2 13 7 28 22 15
15 27 30 25 34 -2 3 1 8 6 10 23 9 49 90 47 146 -4 74 -26 115 -79 149 -23 14
-44 29 -47 33 -16 20 -87 53 -142 65 -60 13 -310 13 -393 0 -51 -8 -111 -21
-121 -27 -5 -3 -25 -9 -45 -12 -53 -8 -89 -24 -89 -38 0 -7 11 -26 25 -41 14
-15 21 -27 16 -27 -5 0 -12 4 -15 9 -5 8 -35 25 -171 101 -16 9 -57 32 -90 50
-75 42 -191 100 -270 135 -116 51 -255 118 -251 122 4 4 133 -40 181 -62 17
-7 35 -14 40 -15 6 -1 16 -6 23 -12 7 -6 14 -9 17 -7 6 6 -7 22 -26 34 -9 6
-52 35 -95 65 -85 60 -200 141 -249 174 -16 12 -32 24 -35 27 -23 26 -338 209
-360 209 -4 0 -19 9 -34 21 -14 11 -26 17 -26 14 0 -4 -11 0 -25 9 -45 29
-127 75 -207 116 -76 38 -104 47 -193 64 -30 6 -98 23 -202 52 -99 27 -127 34
-152 40 -13 3 -32 9 -43 15 -10 5 -18 8 -18 5 0 -3 -20 1 -45 8 -25 8 -45 12
-45 10 0 -2 -11 1 -24 6 -13 5 -50 12 -83 16 -32 3 -67 8 -78 10 -11 3 -36 7
-55 10 -19 3 -51 9 -70 15 -51 13 -138 10 -190 -8z"/>
<path d="M6385 3210 c-25 -5 -27 -7 -10 -11 22 -6 64 5 49 12 -5 3 -22 3 -39
-1z"/>
<path d="M7788 3075 c2 -14 10 -25 17 -25 6 0 17 11 23 25 11 23 10 25 -17 25
-25 0 -28 -3 -23 -25z"/>
<path d="M6350 2755 c-11 -13 -8 -15 16 -15 24 0 70 18 54 21 -45 8 -59 7 -70
-6z"/>
<path d="M6150 2649 c-32 -9 -17 -11 98 -13 50 -1 92 2 92 6 0 5 -8 8 -17 9
-87 5 -152 4 -173 -2z"/>
<path d="M8108 2464 c-3 -3 -4 -23 -1 -45 4 -25 2 -39 -6 -39 -6 0 -11 -11
-11 -24 0 -14 -6 -31 -14 -38 -11 -12 -7 -16 30 -24 58 -14 83 -3 79 33 -3 27
-5 35 -28 98 -14 38 -34 54 -49 39z"/>
<path d="M7928 2448 c-7 -4 -9 -8 -4 -8 5 0 4 -6 -2 -13 -9 -10 -5 -17 16 -29
15 -9 38 -26 51 -37 28 -25 50 -26 76 -7 19 14 19 15 2 33 -9 11 -17 25 -17
31 0 28 -91 50 -122 30z"/>
<path d="M8048 2272 c-21 -4 -22 -15 -7 -44 9 -16 17 -19 41 -14 17 3 57 -1
90 -10 33 -8 63 -13 66 -10 15 16 -20 56 -57 66 -46 12 -108 18 -133 12z"/>
<path d="M1930 1388 c0 -7 5 -20 10 -28 8 -12 10 -9 10 13 0 15 -4 27 -10 27
-5 0 -10 -6 -10 -12z"/>
<path d="M2373 1343 c9 -2 23 -2 30 0 6 3 -1 5 -18 5 -16 0 -22 -2 -12 -5z"/>
<path d="M6997 1333 c-4 -3 -7 -13 -7 -21 0 -8 -7 -30 -17 -49 -22 -47 -8 -54
70 -37 34 7 65 10 69 8 3 -2 9 0 13 6 3 5 15 10 26 10 24 0 25 19 2 27 -10 3
-45 18 -79 34 -66 32 -68 32 -77 22z"/>
</g>
</svg>
